<?xml version="1.0" encoding="us-ascii" standalone="no"?><svg xmlns="http://www.w3.org/2000/svg" xmlns:xlink="http://www.w3.org/1999/xlink" contentStyleType="text/css" height="301px" preserveAspectRatio="none" style="width:532px;height:301px;background:#FFFFFF;" version="1.1" viewBox="0 0 532 301" width="532px" zoomAndPan="magnify"><defs/><g><!--class Person--><g id="elem_Person"><rect codeLine="4" fill="#F1F1F1" height="77.2422" id="Person" rx="2.5" ry="2.5" style="stroke:#181818;stroke-width:0.5;" width="77" x="7" y="16.5"/><ellipse cx="22" cy="32.5" fill="#ADD1B2" rx="11" ry="11" style="stroke:#181818;stroke-width:1.0;"/><path d="M20.8594,33.2969 L20.8594,35.7969 L25.1875,35.7969 L25.1875,34.875 Q25.1875,34.2656 25.4219,34 Q25.6719,33.7344 26.0469,33.7344 Q26.4219,33.7344 26.6563,34 Q26.8906,34.2656 26.8906,34.875 L26.8906,37.5 L18.8906,37.5 Q18.2656,37.5 18,37.2656 Q17.75,37.0313 17.75,36.6406 Q17.75,36.2656 18.0156,36.0313 Q18.2813,35.7969 18.8906,35.7969 L19.1563,35.7969 L19.1563,29.1406 L18.8906,29.1406 Q18.2656,29.1406 18,28.9063 Q17.75,28.6719 17.75,28.2813 Q17.75,27.9063 18,27.6719 Q18.2656,27.4375 18.8906,27.4375 L26.5156,27.4375 L26.5156,30.0313 Q26.5156,30.6406 26.2813,30.9063 Q26.0625,31.1563 25.6719,31.1563 Q25.2969,31.1563 25.0625,30.9063 Q24.8281,30.6406 24.8281,30.0313 L24.8281,29.1406 L20.8594,29.1406 L20.8594,31.5938 L22.3438,31.5938 Q22.3438,30.9375 22.4688,30.75 Q22.7344,30.3438 23.2031,30.3438 Q23.5781,30.3438 23.8125,30.6094 Q24.0469,30.8594 24.0469,31.4688 L24.0469,33.4375 Q24.0469,33.9844 23.9219,34.1719 Q23.6563,34.5625 23.2031,34.5625 Q22.7344,34.5625 22.4688,34.1563 Q22.3438,33.9688 22.3438,33.2969 L20.8594,33.2969 Z " fill="#000000"/><text fill="#000000" font-family="sans-serif" font-size="14" lengthAdjust="spacing" textLength="45" x="36" y="38.2969">Person</text><line style="stroke:#181818;stroke-width:0.5;" x1="8" x2="83" y1="48.5" y2="48.5"/><text fill="#000000" font-family="sans-serif" font-size="14" lengthAdjust="spacing" textLength="35" x="13" y="67.6074">name</text><text fill="#000000" font-family="sans-serif" font-size="14" lengthAdjust="spacing" textLength="40" x="13" y="86.2285">phone</text></g><!--class Item--><g id="elem_Item"><rect codeLine="9" fill="#F1F1F1" height="95.8633" id="Item" rx="2.5" ry="2.5" style="stroke:#181818;stroke-width:0.5;" width="62" x="439.5" y="7"/><ellipse cx="456.3" cy="23" fill="#ADD1B2" rx="11" ry="11" style="stroke:#181818;stroke-width:1.0;"/><path d="M455.1594,23.7969 L455.1594,26.2969 L459.4875,26.2969 L459.4875,25.375 Q459.4875,24.7656 459.7219,24.5 Q459.9719,24.2344 460.3469,24.2344 Q460.7219,24.2344 460.9563,24.5 Q461.1906,24.7656 461.1906,25.375 L461.1906,28 L453.1906,28 Q452.5656,28 452.3,27.7656 Q452.05,27.5313 452.05,27.1406 Q452.05,26.7656 452.3156,26.5313 Q452.5813,26.2969 453.1906,26.2969 L453.4563,26.2969 L453.4563,19.6406 L453.1906,19.6406 Q452.5656,19.6406 452.3,19.4063 Q452.05,19.1719 452.05,18.7813 Q452.05,18.4063 452.3,18.1719 Q452.5656,17.9375 453.1906,17.9375 L460.8156,17.9375 L460.8156,20.5313 Q460.8156,21.1406 460.5813,21.4063 Q460.3625,21.6563 459.9719,21.6563 Q459.5969,21.6563 459.3625,21.4063 Q459.1281,21.1406 459.1281,20.5313 L459.1281,19.6406 L455.1594,19.6406 L455.1594,22.0938 L456.6438,22.0938 Q456.6438,21.4375 456.7688,21.25 Q457.0344,20.8438 457.5031,20.8438 Q457.8781,20.8438 458.1125,21.1094 Q458.3469,21.3594 458.3469,21.9688 L458.3469,23.9375 Q458.3469,24.4844 458.2219,24.6719 Q457.9563,25.0625 457.5031,25.0625 Q457.0344,25.0625 456.7688,24.6563 Q456.6438,24.4688 456.6438,23.7969 L455.1594,23.7969 Z " fill="#000000"/><text fill="#000000" font-family="sans-serif" font-size="14" lengthAdjust="spacing" textLength="26" x="470.7" y="28.7969">Item</text><line style="stroke:#181818;stroke-width:0.5;" x1="440.5" x2="500.5" y1="39" y2="39"/><text fill="#000000" font-family="sans-serif" font-size="14" lengthAdjust="spacing" textLength="27" x="445.5" y="58.1074">type</text><text fill="#000000" font-family="sans-serif" font-size="14" lengthAdjust="spacing" textLength="35" x="445.5" y="76.7285">name</text><text fill="#000000" font-family="sans-serif" font-size="14" lengthAdjust="spacing" textLength="50" x="445.5" y="95.3496">quantity</text></g><!--class Placement--><g id="elem_Placement"><rect codeLine="15" fill="#F1F1F1" height="95.8633" id="Placement" rx="2.5" ry="2.5" style="stroke:#181818;stroke-width:0.5;" width="98" x="214.5" y="7"/><ellipse cx="229.5" cy="23" fill="#ADD1B2" rx="11" ry="11" style="stroke:#181818;stroke-width:1.0;"/><path d="M228.3594,23.7969 L228.3594,26.2969 L232.6875,26.2969 L232.6875,25.375 Q232.6875,24.7656 232.9219,24.5 Q233.1719,24.2344 233.5469,24.2344 Q233.9219,24.2344 234.1563,24.5 Q234.3906,24.7656 234.3906,25.375 L234.3906,28 L226.3906,28 Q225.7656,28 225.5,27.7656 Q225.25,27.5313 225.25,27.1406 Q225.25,26.7656 225.5156,26.5313 Q225.7813,26.2969 226.3906,26.2969 L226.6563,26.2969 L226.6563,19.6406 L226.3906,19.6406 Q225.7656,19.6406 225.5,19.4063 Q225.25,19.1719 225.25,18.7813 Q225.25,18.4063 225.5,18.1719 Q225.7656,17.9375 226.3906,17.9375 L234.0156,17.9375 L234.0156,20.5313 Q234.0156,21.1406 233.7813,21.4063 Q233.5625,21.6563 233.1719,21.6563 Q232.7969,21.6563 232.5625,21.4063 Q232.3281,21.1406 232.3281,20.5313 L232.3281,19.6406 L228.3594,19.6406 L228.3594,22.0938 L229.8438,22.0938 Q229.8438,21.4375 229.9688,21.25 Q230.2344,20.8438 230.7031,20.8438 Q231.0781,20.8438 231.3125,21.1094 Q231.5469,21.3594 231.5469,21.9688 L231.5469,23.9375 Q231.5469,24.4844 231.4219,24.6719 Q231.1563,25.0625 230.7031,25.0625 Q230.2344,25.0625 229.9688,24.6563 Q229.8438,24.4688 229.8438,23.7969 L228.3594,23.7969 Z " fill="#000000"/><text fill="#000000" font-family="sans-serif" font-size="14" lengthAdjust="spacing" textLength="66" x="243.5" y="28.7969">Placement</text><line style="stroke:#181818;stroke-width:0.5;" x1="215.5" x2="311.5" y1="39" y2="39"/><text fill="#000000" font-family="sans-serif" font-size="14" lengthAdjust="spacing" textLength="55" x="220.5" y="58.1074">begin_at</text><text fill="#000000" font-family="sans-serif" font-size="14" lengthAdjust="spacing" textLength="44" x="220.5" y="76.7285">end_at</text><text fill="#000000" font-family="sans-serif" font-size="14" lengthAdjust="spacing" textLength="35" x="220.5" y="95.3496">notes</text></g><!--class Storage--><g id="elem_Storage"><rect codeLine="21" fill="#F1F1F1" height="95.8633" id="Storage" rx="2.5" ry="2.5" style="stroke:#181818;stroke-width:0.5;" width="82" x="325.5" y="199"/><ellipse cx="340.5" cy="215" fill="#ADD1B2" rx="11" ry="11" style="stroke:#181818;stroke-width:1.0;"/><path d="M339.3594,215.7969 L339.3594,218.2969 L343.6875,218.2969 L343.6875,217.375 Q343.6875,216.7656 343.9219,216.5 Q344.1719,216.2344 344.5469,216.2344 Q344.9219,216.2344 345.1563,216.5 Q345.3906,216.7656 345.3906,217.375 L345.3906,220 L337.3906,220 Q336.7656,220 336.5,219.7656 Q336.25,219.5313 336.25,219.1406 Q336.25,218.7656 336.5156,218.5313 Q336.7813,218.2969 337.3906,218.2969 L337.6563,218.2969 L337.6563,211.6406 L337.3906,211.6406 Q336.7656,211.6406 336.5,211.4063 Q336.25,211.1719 336.25,210.7813 Q336.25,210.4063 336.5,210.1719 Q336.7656,209.9375 337.3906,209.9375 L345.0156,209.9375 L345.0156,212.5313 Q345.0156,213.1406 344.7813,213.4063 Q344.5625,213.6563 344.1719,213.6563 Q343.7969,213.6563 343.5625,213.4063 Q343.3281,213.1406 343.3281,212.5313 L343.3281,211.6406 L339.3594,211.6406 L339.3594,214.0938 L340.8438,214.0938 Q340.8438,213.4375 340.9688,213.25 Q341.2344,212.8438 341.7031,212.8438 Q342.0781,212.8438 342.3125,213.1094 Q342.5469,213.3594 342.5469,213.9688 L342.5469,215.9375 Q342.5469,216.4844 342.4219,216.6719 Q342.1563,217.0625 341.7031,217.0625 Q341.2344,217.0625 340.9688,216.6563 Q340.8438,216.4688 340.8438,215.7969 L339.3594,215.7969 Z " fill="#000000"/><text fill="#000000" font-family="sans-serif" font-size="14" lengthAdjust="spacing" textLength="50" x="354.5" y="220.7969">Storage</text><line style="stroke:#181818;stroke-width:0.5;" x1="326.5" x2="406.5" y1="231" y2="231"/><text fill="#000000" font-family="sans-serif" font-size="14" lengthAdjust="spacing" textLength="35" x="331.5" y="250.1074">name</text><text fill="#000000" font-family="sans-serif" font-size="14" lengthAdjust="spacing" textLength="27" x="331.5" y="268.7285">type</text><text fill="#000000" font-family="sans-serif" font-size="14" lengthAdjust="spacing" textLength="69" x="331.5" y="287.3496">description</text></g><!--link Person to Placement--><g id="link_Person_Placement"><path codeLine="28" d="M84.22,55 C120.56,55 175.07,55 214.43,55 " fill="none" id="Person-Placement" style="stroke:#181818;stroke-width:1.0;"/><text fill="#000000" font-family="sans-serif" font-size="13" lengthAdjust="spacing" textLength="94" x="102.25" y="31.0283">&#1050;&#1090;&#1086; &#1087;&#1077;&#1088;&#1077;&#1084;&#1077;&#1089;&#1090;&#1080;&#1083;</text><polygon fill="#000000" points="118.75,42.9365,109.7049,39.9976,109.7049,45.8754,118.75,42.9365" style="stroke:#000000;stroke-width:1.0;"/><text fill="#000000" font-family="sans-serif" font-size="13" lengthAdjust="spacing" textLength="68" x="121.75" y="48.3193">&#1080;&#1085;&#1089;&#1090;&#1088;&#1091;&#1084;&#1077;&#1085;&#1090;</text><text fill="#000000" font-family="sans-serif" font-size="13" lengthAdjust="spacing" textLength="7" x="92.0043" y="50.4656">1</text><text fill="#000000" font-family="sans-serif" font-size="13" lengthAdjust="spacing" textLength="5" x="201.5333" y="50.7595">*</text></g><!--link Placement to Item--><g id="link_Placement_Item"><path codeLine="30" d="M312.56,55 C351.89,55 405.89,55 439.47,55 " fill="none" id="Placement-Item" style="stroke:#181818;stroke-width:1.0;"/><text fill="#000000" font-family="sans-serif" font-size="13" lengthAdjust="spacing" textLength="55" x="348.5" y="31.0283">&#1063;&#1090;&#1086; &#1073;&#1099;&#1083;&#1086;</text><polygon fill="#000000" points="331,42.9365,340.0451,45.8754,340.0451,39.9976,331,42.9365" style="stroke:#000000;stroke-width:1.0;"/><text fill="#000000" font-family="sans-serif" font-size="13" lengthAdjust="spacing" textLength="77" x="344" y="48.3193">&#1087;&#1077;&#1088;&#1077;&#1084;&#1077;&#1097;&#1077;&#1085;&#1086;</text><text fill="#000000" font-family="sans-serif" font-size="13" lengthAdjust="spacing" textLength="7" x="320.6083" y="50.7595">1</text><text fill="#000000" font-family="sans-serif" font-size="13" lengthAdjust="spacing" textLength="7" x="424.4849" y="50.1122">1</text></g><!--link Item to Storage--><g id="link_Item_Storage"><path codeLine="32" d="M448.35,103.26 C438.44,123.71 426.34,147.77 414.5,169 C409.05,178.77 402.93,189.04 396.94,198.79 " fill="none" id="Item-Storage" style="stroke:#181818;stroke-width:1.0;"/><text fill="#000000" font-family="sans-serif" font-size="13" lengthAdjust="spacing" textLength="87" x="432.5" y="148.0283">&#1056;&#1072;&#1079;&#1084;&#1077;&#1097;&#1077;&#1085;&#1085;&#1099;&#1077;</text><polygon fill="#000000" points="442.6305,164.3394,449.5049,157.7672,444.329,154.9818,442.6305,164.3394" style="stroke:#000000;stroke-width:1.0;"/><text fill="#000000" font-family="sans-serif" font-size="13" lengthAdjust="spacing" textLength="59" x="453" y="165.3193">&#1087;&#1088;&#1077;&#1076;&#1084;&#1077;&#1090;&#1099;</text><text fill="#000000" font-family="sans-serif" font-size="13" lengthAdjust="spacing" textLength="5" x="440.0377" y="124.9442">*</text><text fill="#000000" font-family="sans-serif" font-size="13" lengthAdjust="spacing" textLength="7" x="393.7284" y="187.8736">1</text></g><!--link Placement to Storage--><g id="link_Placement_Storage"><path codeLine="34" d="M280.9,103.27 C289.18,123.94 299.83,148.18 311.5,169 C317.04,178.89 323.59,189.04 330.21,198.59 " fill="none" id="Placement-Storage" style="stroke:#181818;stroke-width:1.0;"/><text fill="#000000" font-family="sans-serif" font-size="13" lengthAdjust="spacing" textLength="38" x="342" y="148.0283">&#1060;&#1072;&#1082;&#1090;&#1099;</text><polygon fill="#000000" points="319.7974,164.3775,318.2517,154.9934,313.0311,157.6941,319.7974,164.3775" style="stroke:#000000;stroke-width:1.0;"/><text fill="#000000" font-family="sans-serif" font-size="13" lengthAdjust="spacing" textLength="84" x="325.5" y="165.3193">&#1087;&#1077;&#1088;&#1077;&#1084;&#1077;&#1097;&#1077;&#1085;&#1080;&#1103;</text><text fill="#000000" font-family="sans-serif" font-size="13" lengthAdjust="spacing" textLength="5" x="277.9022" y="124.9555">*</text><text fill="#000000" font-family="sans-serif" font-size="13" lengthAdjust="spacing" textLength="7" x="317.6145" y="187.6454">1</text></g><!--link Storage to Storage--><g id="link_Storage_Storage"><path codeLine="36" d="M407.55,229.32 C426.25,227.51 442.5,233.41 442.5,247 C442.5,260.59 426.25,266.49 407.55,264.68 " fill="none" id="Storage-Storage" style="stroke:#181818;stroke-width:1.0;"/><polygon fill="#000000" points="447.0183,252.1222,450.815,243.4024,444.9645,242.8361,447.0183,252.1222" style="stroke:#000000;stroke-width:1.0;"/><text fill="#000000" font-family="sans-serif" font-size="13" lengthAdjust="spacing" textLength="58" x="461.5" y="252.5283">&#1048;&#1077;&#1088;&#1072;&#1088;&#1093;&#1080;&#1103;</text><text fill="#000000" font-family="sans-serif" font-size="13" lengthAdjust="spacing" textLength="22" x="415.5202" y="222.3723">0..1</text><text fill="#000000" font-family="sans-serif" font-size="13" lengthAdjust="spacing" textLength="5" x="415.5795" y="263.4403">*</text></g><!--SRC=[RP31IiD048Rl-nJBNWg557CLyUwju5MGj1dQWBk9oNee8jGK3wM7NiMJWk2rYi5YRNo5sJToTflOj7GFsHtc_x_yCyCe10uoqICkGVOWpHXhjJY-c8cPuXfBSszoN39GEY9DbmInuhUCqr611FT8Xh42TiTgrPa6MMdqA85TyVLDu5GDVVSgw8EaeZBrO12foq2x0bHOFrMi8MlupdMS1WFOZ_F_pn2oVXebEegLTRcvyCFCyOicgaOHll1IJxH58yKnnoUQkkJuYuKPOu4_TBj5uEf2qNTjApCs4zkXAkUdZ6q15TGNcrKGxst3UpSpN659Z2PvQXdKFc7CwIcDvzprW0HunWN5tghNH2einr4-NIStixqS1q2l1FgsqeCXbcPk4RLU77KwlcMqTnYFphUW1JnKZZy0]--></g></svg>