<svg xmlns="http://www.w3.org/2000/svg" xmlns:xlink="http://www.w3.org/1999/xlink" contentStyleType="text/css" data-diagram-type="ACTIVITY" height="514px" preserveAspectRatio="none" style="width:441px;height:514px;background:#FFFFFF;" version="1.1" viewBox="0 0 441 514" width="441px" zoomAndPan="magnify"><defs/><g><ellipse cx="207.4629" cy="20" fill="#222222" rx="10" ry="10" style="stroke:#222222;stroke-width:1;"/><rect fill="#F1F1F1" height="35.9609" rx="12.5" ry="12.5" style="stroke:#181818;stroke-width:0.5;" width="202.6309" x="106.1475" y="50"/><text fill="#000000" font-family="sans-serif" font-size="12" lengthAdjust="spacing" textLength="128.6191" x="116.1475" y="72.9492">&#1048;&#1085;&#1080;&#1094;&#1080;&#1072;&#1083;&#1080;&#1079;&#1072;&#1094;&#1080;&#1103; &#1089;&#1087;&#1080;&#1089;&#1082;&#1072;</text><text fill="#000000" font-family="sans-serif" font-size="12" font-weight="bold" lengthAdjust="spacing" textLength="50.6777" x="248.1006" y="72.9492">numbers</text><rect fill="#F1F1F1" height="35.9609" rx="12.5" ry="12.5" style="stroke:#181818;stroke-width:0.5;" width="392.9258" x="11" y="149.9609"/><text fill="#000000" font-family="sans-serif" font-size="12" lengthAdjust="spacing" textLength="162.1758" x="21" y="172.9102">&#1043;&#1077;&#1085;&#1077;&#1088;&#1072;&#1094;&#1080;&#1103; &#1089;&#1083;&#1091;&#1095;&#1072;&#1081;&#1085;&#1086;&#1075;&#1086; &#1095;&#1080;&#1089;&#1083;&#1072;</text><text fill="#000000" font-family="sans-serif" font-size="12" font-weight="bold" lengthAdjust="spacing" textLength="25.3301" x="186.5098" y="172.9102">num</text><text fill="#000000" font-family="sans-serif" font-size="12" lengthAdjust="spacing" textLength="126.0996" x="215.1738" y="172.9102">&#1074; &#1079;&#1072;&#1076;&#1072;&#1085;&#1085;&#1086;&#1084; &#1076;&#1080;&#1072;&#1087;&#1072;&#1079;&#1086;&#1085;&#1077;</text><text fill="#000000" font-family="sans-serif" font-size="12" font-weight="bold" lengthAdjust="spacing" textLength="49.3184" x="344.6074" y="172.9102">low-high</text><rect fill="#F1F1F1" height="35.9609" rx="12.5" ry="12.5" style="stroke:#181818;stroke-width:0.5;" width="121.3086" x="146.8086" y="205.9219"/><text fill="#000000" font-family="sans-serif" font-size="12" lengthAdjust="spacing" textLength="72.6445" x="156.8086" y="228.8711">&#1042;&#1099;&#1074;&#1086;&#1076; &#1095;&#1080;&#1089;&#1083;&#1072;</text><text fill="#000000" font-family="sans-serif" font-size="12" font-weight="bold" lengthAdjust="spacing" textLength="25.3301" x="232.7871" y="228.8711">num</text><rect fill="#F1F1F1" height="35.9609" rx="12.5" ry="12.5" style="stroke:#181818;stroke-width:0.5;" width="257.2109" x="78.8574" y="269.3828"/><text fill="#000000" font-family="sans-serif" font-size="12" lengthAdjust="spacing" textLength="104.3672" x="88.8574" y="292.332">&#1044;&#1086;&#1073;&#1072;&#1074;&#1083;&#1077;&#1085;&#1080;&#1077; &#1095;&#1080;&#1089;&#1083;&#1072;</text><text fill="#000000" font-family="sans-serif" font-size="12" font-weight="bold" lengthAdjust="spacing" textLength="25.3301" x="196.5586" y="292.332">num</text><text fill="#000000" font-family="sans-serif" font-size="12" lengthAdjust="spacing" textLength="46.834" x="225.2227" y="292.332">&#1074; &#1089;&#1087;&#1080;&#1089;&#1086;&#1082;</text><text fill="#000000" font-family="sans-serif" font-size="12" font-weight="bold" lengthAdjust="spacing" textLength="50.6777" x="275.3906" y="292.332">numbers</text><rect fill="#F1F1F1" height="35.9609" rx="12.5" ry="12.5" style="stroke:#181818;stroke-width:0.5;" width="339.2891" x="37.8184" y="325.3438"/><text fill="#000000" font-family="sans-serif" font-size="12" lengthAdjust="spacing" textLength="319.2891" x="47.8184" y="348.293">&#1047;&#1072;&#1087;&#1088;&#1086;&#1089; &#1074;&#1074;&#1086;&#1076;&#1072; &#1087;&#1086;&#1083;&#1100;&#1079;&#1086;&#1074;&#1072;&#1090;&#1077;&#1083;&#1103; "&#1042;&#1074;&#1077;&#1076;&#1080;&#1090;&#1077; 0 &#1076;&#1083;&#1103; &#1086;&#1089;&#1090;&#1072;&#1085;&#1086;&#1074;&#1082;&#1080;..."</text><polygon fill="#F1F1F1" points="207.4629,105.9609,219.4629,117.9609,207.4629,129.9609,195.4629,117.9609,207.4629,105.9609" style="stroke:#181818;stroke-width:0.5;"/><polygon fill="#F1F1F1" points="180.8625,381.3047,234.0632,381.3047,246.0632,393.3047,234.0632,405.3047,180.8625,405.3047,168.8625,393.3047,180.8625,381.3047" style="stroke:#181818;stroke-width:0.5;"/><text fill="#000000" font-family="sans-serif" font-size="11" lengthAdjust="spacing" textLength="53.2007" x="180.8625" y="397.8594">&#1042;&#1074;&#1077;&#1076;&#1077;&#1085; 0?</text><text fill="#000000" font-family="sans-serif" font-size="11" lengthAdjust="spacing" textLength="19.0996" x="246.0632" y="390.5439">&#1053;&#1077;&#1090;</text><rect fill="#F1F1F1" height="35.9609" rx="12.5" ry="12.5" style="stroke:#181818;stroke-width:0.5;" width="301.8945" x="56.5156" y="425.3047"/><text fill="#000000" font-family="sans-serif" font-size="12" lengthAdjust="spacing" textLength="120.1582" x="66.5156" y="448.2539">&#1042;&#1099;&#1074;&#1086;&#1076; &#1074;&#1089;&#1077;&#1093; &#1079;&#1085;&#1072;&#1095;&#1077;&#1085;&#1080;&#1081;</text><text fill="#000000" font-family="sans-serif" font-size="12" font-weight="bold" lengthAdjust="spacing" textLength="50.6777" x="190.0078" y="448.2539">numbers</text><text fill="#000000" font-family="sans-serif" font-size="12" lengthAdjust="spacing" textLength="107.7246" x="240.6855" y="448.2539">, &#1082;&#1088;&#1086;&#1084;&#1077; &#1087;&#1086;&#1089;&#1083;&#1077;&#1076;&#1085;&#1077;&#1075;&#1086;</text><ellipse cx="207.4629" cy="492.2656" fill="none" rx="11" ry="11" style="stroke:#222222;stroke-width:1;"/><ellipse cx="207.4629" cy="492.2656" fill="#222222" rx="6" ry="6" style="stroke:#222222;stroke-width:1;"/><line style="stroke:#181818;stroke-width:1;" x1="207.4629" x2="207.4629" y1="30" y2="50"/><polygon fill="#181818" points="203.4629,40,207.4629,50,211.4629,40,207.4629,44" style="stroke:#181818;stroke-width:1;"/><line style="stroke:#181818;stroke-width:1;" x1="207.4629" x2="207.4629" y1="185.9219" y2="205.9219"/><polygon fill="#181818" points="203.4629,195.9219,207.4629,205.9219,211.4629,195.9219,207.4629,199.9219" style="stroke:#181818;stroke-width:1;"/><line style="stroke:#181818;stroke-width:1;" x1="207.4629" x2="207.4629" y1="241.8828" y2="269.3828"/><polygon fill="#181818" points="203.4629,259.3828,207.4629,269.3828,211.4629,259.3828,207.4629,263.3828" style="stroke:#181818;stroke-width:1;"/><line style="stroke:#181818;stroke-width:1;" x1="207.4629" x2="207.4629" y1="305.3438" y2="325.3438"/><polygon fill="#181818" points="203.4629,315.3438,207.4629,325.3438,211.4629,315.3438,207.4629,319.3438" style="stroke:#181818;stroke-width:1;"/><line style="stroke:#181818;stroke-width:1;" x1="207.4629" x2="207.4629" y1="129.9609" y2="149.9609"/><polygon fill="#181818" points="203.4629,139.9609,207.4629,149.9609,211.4629,139.9609,207.4629,143.9609" style="stroke:#181818;stroke-width:1;"/><line style="stroke:#181818;stroke-width:1;" x1="246.0632" x2="415.9258" y1="393.3047" y2="393.3047"/><polygon fill="#181818" points="411.9258,261.8828,415.9258,251.8828,419.9258,261.8828,415.9258,257.8828" style="stroke:#181818;stroke-width:1;"/><line style="stroke:#181818;stroke-width:1;" x1="415.9258" x2="415.9258" y1="117.9609" y2="393.3047"/><line style="stroke:#181818;stroke-width:1;" x1="415.9258" x2="219.4629" y1="117.9609" y2="117.9609"/><polygon fill="#181818" points="229.4629,113.9609,219.4629,117.9609,229.4629,121.9609,225.4629,117.9609" style="stroke:#181818;stroke-width:1;"/><line style="stroke:#181818;stroke-width:1;" x1="207.4629" x2="207.4629" y1="361.3047" y2="381.3047"/><polygon fill="#181818" points="203.4629,371.3047,207.4629,381.3047,211.4629,371.3047,207.4629,375.3047" style="stroke:#181818;stroke-width:1;"/><line style="stroke:#181818;stroke-width:1;" x1="207.4629" x2="207.4629" y1="85.9609" y2="105.9609"/><polygon fill="#181818" points="203.4629,95.9609,207.4629,105.9609,211.4629,95.9609,207.4629,99.9609" style="stroke:#181818;stroke-width:1;"/><line style="stroke:#181818;stroke-width:1;" x1="207.4629" x2="207.4629" y1="405.3047" y2="425.3047"/><polygon fill="#181818" points="203.4629,415.3047,207.4629,425.3047,211.4629,415.3047,207.4629,419.3047" style="stroke:#181818;stroke-width:1;"/><line style="stroke:#181818;stroke-width:1;" x1="207.4629" x2="207.4629" y1="461.2656" y2="481.2656"/><polygon fill="#181818" points="203.4629,471.2656,207.4629,481.2656,211.4629,471.2656,207.4629,475.2656" style="stroke:#181818;stroke-width:1;"/><!--SRC=[RP7DIiDG48Ntzoc6hkn5GzVjmcUf44oWsf94kZKjseM2K0NT-0xnsj0qQMvVOUuRUIRL4A6BXCpVcVDDucGS9KeD-ODhBjmZ5vnnXVUMCudS2xcK3_X8kUICjBwzkxdoerZhaLAHF_F7YI8QyYldKCZTVNUkSaktWk0E9SlVR0cXI5L_KbeJ6v9jlC5JDurxGY163dYsI40OxPFf_288hmDPBIlNxeaDgfiJgiUEDrI_e65G4di5T4uxQ24jb_yXHUTTl03DkXJDnwMOnuW5utFZqG1yWIqLq7kyHfmBXUHe841I40LaiWRJuAA5vtczzf8q3yA9JsVjE4pJuB9FOOpa9ywxwAikE1jOpjs3NB26WTKlvgxBS4vSYddUmufuRl157dULlp9ISJATgHy0]--></g></svg>