<?xml version="1.0" encoding="us-ascii" standalone="no"?><svg xmlns="http://www.w3.org/2000/svg" xmlns:xlink="http://www.w3.org/1999/xlink" contentStyleType="text/css" height="671px" preserveAspectRatio="none" style="width:390px;height:671px;background:#FFFFFF;" version="1.1" viewBox="0 0 390 671" width="390px" zoomAndPan="magnify"><defs/><g><ellipse cx="187" cy="20" fill="#222222" rx="10" ry="10" style="stroke:#222222;stroke-width:1.0;"/><rect fill="#F1F1F1" height="35.9609" rx="12.5" ry="12.5" style="stroke:#181818;stroke-width:0.5;" width="87" x="143.5" y="50"/><text fill="#000000" font-family="sans-serif" font-size="12" lengthAdjust="spacing" textLength="67" x="153.5" y="72.9492">&#1042;&#1074;&#1086;&#1076; N, B, A</text><rect fill="#F1F1F1" height="35.9609" rx="12.5" ry="12.5" style="stroke:#181818;stroke-width:0.5;" width="188" x="93" y="105.9609"/><text fill="#000000" font-family="sans-serif" font-size="12" lengthAdjust="spacing" textLength="168" x="103" y="128.9102">&#1048;&#1085;&#1080;&#1094;&#1080;&#1072;&#1083;&#1080;&#1079;&#1072;&#1094;&#1080;&#1103; &#1084;&#1072;&#1089;&#1089;&#1080;&#1074;&#1072; A[N]</text><rect fill="#F1F1F1" height="35.9609" rx="12.5" ry="12.5" style="stroke:#181818;stroke-width:0.5;" width="298" x="38" y="255.2373"/><text fill="#000000" font-family="sans-serif" font-size="12" lengthAdjust="spacing" textLength="278" x="48" y="278.1865">&#1054;&#1073;&#1085;&#1086;&#1074;&#1080;&#1090;&#1100; &#1089;&#1091;&#1084;&#1084;&#1091; &#1080; &#1089;&#1095;&#1077;&#1090;&#1095;&#1080;&#1082; &#1087;&#1086;&#1083;&#1086;&#1078;&#1080;&#1090;&#1077;&#1083;&#1100;&#1085;&#1099;&#1093; &#1095;&#1080;&#1089;&#1077;&#1083;</text><polygon fill="#F1F1F1" points="165.5,205.9219,208.5,205.9219,220.5,217.9219,208.5,229.9219,165.5,229.9219,153.5,217.9219,165.5,205.9219" style="stroke:#181818;stroke-width:0.5;"/><text fill="#000000" font-family="sans-serif" font-size="11" lengthAdjust="spacing" textLength="12" x="191" y="241.792">&#1076;&#1072;</text><text fill="#000000" font-family="sans-serif" font-size="11" lengthAdjust="spacing" textLength="43" x="165.5" y="222.4766">A[i] &gt; 0 ?</text><text fill="#000000" font-family="sans-serif" font-size="11" lengthAdjust="spacing" textLength="12" x="220.5" y="215.1611">no</text><polygon fill="#F1F1F1" points="187,311.1982,199,323.1982,187,335.1982,175,323.1982,187,311.1982" style="stroke:#181818;stroke-width:0.5;"/><rect fill="#F1F1F1" height="35.9609" rx="12.5" ry="12.5" style="stroke:#181818;stroke-width:0.5;" width="273" x="50.5" y="404.5137"/><text fill="#000000" font-family="sans-serif" font-size="12" lengthAdjust="spacing" textLength="253" x="60.5" y="427.4629">&#1054;&#1073;&#1085;&#1086;&#1074;&#1080;&#1090;&#1100; &#1087;&#1088;&#1086;&#1080;&#1079;&#1074;&#1077;&#1076;&#1077;&#1085;&#1080;&#1077; &#1080; &#1089;&#1095;&#1077;&#1090;&#1095;&#1080;&#1082; &#1095;&#1080;&#1089;&#1077;&#1083; &gt; B</text><polygon fill="#F1F1F1" points="165,355.1982,209,355.1982,221,367.1982,209,379.1982,165,379.1982,153,367.1982,165,355.1982" style="stroke:#181818;stroke-width:0.5;"/><text fill="#000000" font-family="sans-serif" font-size="11" lengthAdjust="spacing" textLength="12" x="191" y="391.0684">&#1076;&#1072;</text><text fill="#000000" font-family="sans-serif" font-size="11" lengthAdjust="spacing" textLength="44" x="165" y="371.7529">A[i] &gt; B ?</text><text fill="#000000" font-family="sans-serif" font-size="11" lengthAdjust="spacing" textLength="12" x="221" y="364.4375">no</text><polygon fill="#F1F1F1" points="187,460.4746,199,472.4746,187,484.4746,175,472.4746,187,460.4746" style="stroke:#181818;stroke-width:0.5;"/><rect fill="#F1F1F1" height="35.9609" rx="12.5" ry="12.5" style="stroke:#181818;stroke-width:0.5;" width="59" x="157.5" y="504.4746"/><text fill="#000000" font-family="sans-serif" font-size="12" lengthAdjust="spacing" textLength="39" x="167.5" y="527.4238">i = i + 1</text><polygon fill="#F1F1F1" points="172,161.9219,202,161.9219,214,173.9219,202,185.9219,172,185.9219,160,173.9219,172,161.9219" style="stroke:#181818;stroke-width:0.5;"/><text fill="#000000" font-family="sans-serif" font-size="11" lengthAdjust="spacing" textLength="30" x="172" y="178.4766">i &lt; N ?</text><rect fill="#F1F1F1" height="35.9609" rx="12.5" ry="12.5" style="stroke:#181818;stroke-width:0.5;" width="129" x="122.5" y="582.4355"/><text fill="#000000" font-family="sans-serif" font-size="12" lengthAdjust="spacing" textLength="109" x="132.5" y="605.3848">&#1042;&#1099;&#1074;&#1086;&#1076; &#1088;&#1077;&#1079;&#1091;&#1083;&#1100;&#1090;&#1072;&#1090;&#1086;&#1074;</text><ellipse cx="187" cy="649.3965" fill="none" rx="11" ry="11" style="stroke:#222222;stroke-width:1.0;"/><ellipse cx="187" cy="649.3965" fill="#222222" rx="6" ry="6" style="stroke:#222222;stroke-width:1.0;"/><line style="stroke:#181818;stroke-width:1.0;" x1="187" x2="187" y1="30" y2="50"/><polygon fill="#181818" points="183,40,187,50,191,40,187,44" style="stroke:#181818;stroke-width:1.0;"/><line style="stroke:#181818;stroke-width:1.0;" x1="187" x2="187" y1="85.9609" y2="105.9609"/><polygon fill="#181818" points="183,95.9609,187,105.9609,191,95.9609,187,99.9609" style="stroke:#181818;stroke-width:1.0;"/><line style="stroke:#181818;stroke-width:1.0;" x1="187" x2="187" y1="229.9219" y2="255.2373"/><polygon fill="#181818" points="183,245.2373,187,255.2373,191,245.2373,187,249.2373" style="stroke:#181818;stroke-width:1.0;"/><line style="stroke:#181818;stroke-width:1.0;" x1="220.5" x2="346" y1="217.9219" y2="217.9219"/><polygon fill="#181818" points="342,263.2178,346,273.2178,350,263.2178,346,267.2178" style="stroke:#181818;stroke-width:1.0;"/><line style="stroke:#181818;stroke-width:1.0;" x1="346" x2="346" y1="217.9219" y2="323.1982"/><line style="stroke:#181818;stroke-width:1.0;" x1="346" x2="199" y1="323.1982" y2="323.1982"/><polygon fill="#181818" points="209,319.1982,199,323.1982,209,327.1982,205,323.1982" style="stroke:#181818;stroke-width:1.0;"/><line style="stroke:#181818;stroke-width:1.0;" x1="187" x2="187" y1="291.1982" y2="311.1982"/><polygon fill="#181818" points="183,301.1982,187,311.1982,191,301.1982,187,305.1982" style="stroke:#181818;stroke-width:1.0;"/><line style="stroke:#181818;stroke-width:1.0;" x1="187" x2="187" y1="379.1982" y2="404.5137"/><polygon fill="#181818" points="183,394.5137,187,404.5137,191,394.5137,187,398.5137" style="stroke:#181818;stroke-width:1.0;"/><line style="stroke:#181818;stroke-width:1.0;" x1="221" x2="333.5" y1="367.1982" y2="367.1982"/><polygon fill="#181818" points="329.5,412.4941,333.5,422.4941,337.5,412.4941,333.5,416.4941" style="stroke:#181818;stroke-width:1.0;"/><line style="stroke:#181818;stroke-width:1.0;" x1="333.5" x2="333.5" y1="367.1982" y2="472.4746"/><line style="stroke:#181818;stroke-width:1.0;" x1="333.5" x2="199" y1="472.4746" y2="472.4746"/><polygon fill="#181818" points="209,468.4746,199,472.4746,209,476.4746,205,472.4746" style="stroke:#181818;stroke-width:1.0;"/><line style="stroke:#181818;stroke-width:1.0;" x1="187" x2="187" y1="440.4746" y2="460.4746"/><polygon fill="#181818" points="183,450.4746,187,460.4746,191,450.4746,187,454.4746" style="stroke:#181818;stroke-width:1.0;"/><line style="stroke:#181818;stroke-width:1.0;" x1="187" x2="187" y1="335.1982" y2="355.1982"/><polygon fill="#181818" points="183,345.1982,187,355.1982,191,345.1982,187,349.1982" style="stroke:#181818;stroke-width:1.0;"/><line style="stroke:#181818;stroke-width:1.0;" x1="187" x2="187" y1="484.4746" y2="504.4746"/><polygon fill="#181818" points="183,494.4746,187,504.4746,191,494.4746,187,498.4746" style="stroke:#181818;stroke-width:1.0;"/><line style="stroke:#181818;stroke-width:1.0;" x1="187" x2="187" y1="185.9219" y2="205.9219"/><polygon fill="#181818" points="183,195.9219,187,205.9219,191,195.9219,187,199.9219" style="stroke:#181818;stroke-width:1.0;"/><line style="stroke:#181818;stroke-width:1.0;" x1="187" x2="187" y1="540.4355" y2="550.4355"/><line style="stroke:#181818;stroke-width:1.0;" x1="187" x2="364" y1="550.4355" y2="550.4355"/><polygon fill="#181818" points="360,371.1787,364,361.1787,368,371.1787,364,367.1787" style="stroke:#181818;stroke-width:1.0;"/><line style="stroke:#181818;stroke-width:1.0;" x1="364" x2="364" y1="173.9219" y2="550.4355"/><line style="stroke:#181818;stroke-width:1.0;" x1="364" x2="214" y1="173.9219" y2="173.9219"/><polygon fill="#181818" points="224,169.9219,214,173.9219,224,177.9219,220,173.9219" style="stroke:#181818;stroke-width:1.0;"/><line style="stroke:#181818;stroke-width:1.0;" x1="160" x2="24" y1="173.9219" y2="173.9219"/><polygon fill="#181818" points="20,357.1787,24,367.1787,28,357.1787,24,361.1787" style="stroke:#181818;stroke-width:1.0;"/><line style="stroke:#181818;stroke-width:1.0;" x1="24" x2="24" y1="173.9219" y2="562.4355"/><line style="stroke:#181818;stroke-width:1.0;" x1="24" x2="187" y1="562.4355" y2="562.4355"/><line style="stroke:#181818;stroke-width:1.0;" x1="187" x2="187" y1="562.4355" y2="582.4355"/><polygon fill="#181818" points="183,572.4355,187,582.4355,191,572.4355,187,576.4355" style="stroke:#181818;stroke-width:1.0;"/><line style="stroke:#181818;stroke-width:1.0;" x1="187" x2="187" y1="141.9219" y2="161.9219"/><polygon fill="#181818" points="183,151.9219,187,161.9219,191,151.9219,187,155.9219" style="stroke:#181818;stroke-width:1.0;"/><line style="stroke:#181818;stroke-width:1.0;" x1="187" x2="187" y1="618.3965" y2="638.3965"/><polygon fill="#181818" points="183,628.3965,187,638.3965,191,628.3965,187,632.3965" style="stroke:#181818;stroke-width:1.0;"/><!--SRC=[TL3BIiDG5DpVhvXbn2vqc_WW_O3yGEb2CAKNIYecuDPQj8iM15Uk_8OO4XjC7xymzu-SAu88TN4kzymvpCoPlBYwBKp85rRSiKRIGx-7E1BqoYrRzyIM9JkzQvQ-Sy_WHj-PcmciM28U9CF8t8tj94LWSOO4bqS6i2C4yS0ESO4J8IZ6QOQ0DKi_1KA-yLqYEx6qxi6j8DAvo3Tk3hQ-Mx3HO26XJt2lpKxruRVPi7ChRjtIFS9lo8wWICpf99UHREfLqkpQZlvwwH_oSi0Cz-vUhJ-y4dMjKY1i3bZxrVVy_ta8BSvXSOpJo0Zx3in7xvO_uKkluLeHw39TMAfa9p9vCRqnNm00]--></g></svg>